<?xml version="1.0" standalone="no"?>
<!DOCTYPE svg PUBLIC "-//W3C//DTD SVG 20010904//EN"
 "http://www.w3.org/TR/2001/REC-SVG-20010904/DTD/svg10.dtd">
<svg version="1.0" xmlns="http://www.w3.org/2000/svg"
 width="260.000000pt" height="260.000000pt" viewBox="0 0 260.000000 260.000000"
 preserveAspectRatio="xMidYMid meet">
<metadata>
Created by potrace 1.14, written by Peter Selinger 2001-2017
</metadata>
<g transform="translate(0.000000,260.000000) scale(0.100000,-0.100000)"
fill="#000000" stroke="none">
<path d="M1210 2395 c0 -8 4 -15 10 -15 5 0 7 7 4 15 -4 8 -8 15 -10 15 -2 0
-4 -7 -4 -15z"/>
<path d="M1175 2393 c-11 -3 -24 -10 -30 -15 -7 -8 -6 -9 2 -4 6 3 15 1 19 -6
4 -7 4 -10 -1 -6 -4 4 -14 0 -22 -10 -8 -9 -12 -12 -9 -7 2 6 0 17 -5 25 -8
12 -9 11 -7 -5 2 -11 -3 -20 -9 -20 -7 0 -13 -4 -13 -10 1 -5 11 -9 23 -8 21
3 21 2 -2 -7 -17 -7 -28 -7 -40 2 -12 9 -11 7 2 -9 18 -21 18 -21 -12 -19 -16
1 -28 -1 -25 -5 2 -4 -2 -10 -8 -13 -7 -3 0 -3 16 -1 16 2 25 1 21 -3 -3 -4
-11 -8 -16 -8 -5 -1 -13 -2 -19 -3 -5 0 -10 -6 -10 -12 0 -5 5 -7 12 -3 7 4 8
3 4 -5 -6 -9 -11 -9 -22 0 -11 9 -14 7 -14 -12 -1 -24 -1 -24 -16 -4 -16 20
-16 19 -9 -4 6 -19 4 -23 -8 -18 -11 4 -14 2 -11 -7 3 -8 0 -17 -7 -22 -7 -4
-10 -3 -5 4 3 6 2 13 -3 17 -6 3 -8 -5 -5 -20 2 -14 0 -25 -5 -25 -5 0 -8 -8
-6 -17 1 -10 8 -17 15 -15 6 1 9 -2 5 -8 -3 -6 -11 -8 -16 -5 -5 4 -9 1 -9 -4
0 -6 6 -11 13 -11 8 0 7 -4 -3 -10 -10 -6 -11 -10 -2 -10 6 0 12 -5 12 -11 0
-5 -5 -7 -11 -3 -7 4 -6 -3 2 -17 7 -13 12 -31 11 -39 -3 -13 -2 -13 7 0 7 9
6 19 -1 27 -15 19 -2 16 17 -3 11 -12 13 -20 5 -29 -7 -9 -6 -16 5 -25 8 -7
13 -16 10 -20 -3 -4 16 -27 42 -51 25 -23 39 -40 30 -36 -10 4 -17 2 -17 -3 0
-6 7 -10 16 -10 9 0 12 -5 8 -12 -5 -8 0 -7 11 2 17 14 18 14 5 -10 -10 -20
-10 -22 0 -13 10 9 16 8 27 -3 8 -8 18 -12 23 -9 4 3 6 -4 3 -15 -3 -12 0 -20
6 -20 7 0 9 -6 5 -12 -5 -10 -4 -10 6 -1 11 10 17 10 31 -3 10 -9 15 -23 12
-31 -5 -12 -7 -12 -14 -1 -7 10 -9 11 -9 0 0 -8 -5 -10 -12 -6 -8 5 -7 0 2
-11 14 -17 14 -18 -9 -6 -14 8 -37 10 -60 6 -20 -4 -38 -6 -40 -5 -2 1 -8 -4
-13 -12 -8 -10 -9 -10 -5 2 2 8 10 14 16 12 7 -1 9 3 6 9 -5 8 -10 8 -18 0
-15 -15 -30 -14 -22 2 4 6 -5 -1 -19 -16 -14 -15 -26 -23 -26 -17 0 6 -5 8
-12 4 -7 -4 -8 -3 -4 5 4 6 11 9 16 6 4 -3 11 2 14 10 5 13 2 14 -17 3 -12 -7
-24 -12 -28 -11 -3 1 -4 -12 -3 -28 1 -16 -2 -26 -7 -23 -5 3 -7 9 -4 14 3 5
1 11 -4 15 -6 3 -8 -5 -5 -19 2 -15 -1 -26 -10 -29 -11 -4 -13 -1 -10 11 5 15
4 15 -6 -1 -6 -9 -9 -21 -5 -26 3 -5 0 -15 -7 -23 -18 -18 -21 -38 -6 -38 6 0
3 -7 -8 -15 -19 -15 -19 -15 1 -9 17 5 18 4 4 -5 -9 -6 -27 -12 -40 -14 -13
-2 -24 -9 -24 -16 0 -6 -7 -16 -15 -22 -12 -9 -12 -10 3 -5 15 5 17 2 12 -15
-4 -12 -3 -19 2 -16 5 3 9 -7 8 -23 0 -15 -3 -26 -7 -23 -5 2 -8 -1 -8 -6 0
-6 4 -11 9 -11 11 0 9 -24 -3 -28 -4 -2 -11 0 -14 4 -4 4 -1 4 6 0 18 -10 15
-1 -5 15 -10 8 -14 9 -10 2 4 -6 3 -15 -3 -18 -8 -5 -8 -11 0 -20 7 -9 6 -16
-7 -26 -11 -9 -14 -10 -9 -1 4 6 3 12 -2 12 -17 0 -22 -13 -9 -28 7 -10 8 -13
1 -9 -18 11 -24 -42 -7 -59 13 -12 12 -14 -2 -14 -9 0 -13 -5 -10 -10 4 -6 12
-7 18 -4 7 4 9 4 5 -1 -4 -4 -3 -13 2 -20 7 -8 5 -12 -5 -12 -8 0 -12 4 -10 8
3 4 -1 9 -8 12 -9 3 -13 -2 -12 -16 1 -15 8 -21 21 -19 15 2 14 -1 -6 -13 -14
-9 -17 -14 -8 -11 23 7 31 -9 13 -24 -8 -7 -12 -17 -8 -24 4 -8 2 -7 -7 1 -14
13 -43 6 -34 -8 3 -5 11 -6 17 -2 7 3 3 -3 -7 -15 -20 -23 -36 -31 -18 -9 8
10 5 16 -11 27 -20 12 -21 12 -9 -3 8 -9 10 -22 6 -29 -15 -24 -12 -49 5 -43
11 3 10 1 -3 -10 -10 -8 -23 -12 -28 -9 -5 3 -7 0 -6 -8 2 -7 -3 -12 -11 -10
-12 3 -12 0 -2 -12 9 -11 9 -16 0 -22 -8 -5 -10 -3 -5 7 4 8 1 6 -8 -4 -8 -11
-12 -26 -10 -35 4 -14 3 -13 -6 1 -8 12 -15 15 -23 9 -7 -6 -32 -9 -57 -7 -25
1 -50 -1 -57 -7 -7 -6 -14 -5 -19 3 -5 8 -3 9 6 4 9 -5 11 -4 6 4 -6 9 -11 9
-21 1 -9 -8 -15 -8 -20 0 -3 6 -12 7 -18 3 -7 -4 -19 -6 -29 -5 -9 2 -19 -2
-23 -7 -4 -7 -15 -5 -31 5 -13 9 -27 14 -31 10 -3 -3 -1 -6 5 -6 7 0 12 -4 12
-10 0 -6 -9 -6 -25 0 -18 7 -25 6 -25 -2 0 -7 -7 -3 -16 8 -8 10 -13 14 -10 7
4 -6 2 -14 -4 -18 -5 -3 -10 -1 -10 6 0 8 -5 7 -17 -2 -15 -12 -16 -12 -8 1 8
13 7 13 -8 1 -15 -12 -17 -11 -17 5 0 14 -3 16 -9 6 -4 -7 -14 -12 -22 -10 -8
2 -13 -4 -13 -14 1 -12 -5 -18 -20 -18 -17 0 -18 -2 -6 -10 13 -8 13 -10 -2
-11 -10 -1 -23 -2 -30 -3 -10 -1 -15 -15 -20 -58 -3 -22 -2 -22 -19 -1 -9 11
-10 14 -2 9 9 -5 11 -2 6 10 -5 15 -7 14 -17 -2 -14 -26 -17 -102 -4 -110 7
-4 8 -2 4 4 -4 7 -3 12 3 12 5 0 13 -9 16 -20 3 -11 11 -20 16 -20 6 0 7 -4 4
-10 -11 -19 -14 -50 -4 -55 5 -4 7 -11 4 -16 -3 -5 2 -6 11 -2 12 4 15 3 10
-5 -4 -7 -2 -12 3 -12 6 0 11 5 11 11 0 5 4 8 9 5 5 -4 8 -17 7 -31 -2 -13 0
-22 5 -20 4 3 11 0 16 -7 4 -7 18 -14 30 -14 16 -1 20 3 15 15 -5 14 -4 14 11
2 14 -11 15 -17 5 -30 -11 -14 -11 -14 4 -3 13 10 17 10 22 0 3 -7 4 -4 3 7
-1 11 -6 24 -12 28 -6 5 -4 7 5 4 8 -2 14 -10 12 -16 -1 -6 3 -11 9 -11 5 0 7
-4 4 -10 -3 -5 0 -10 7 -10 9 0 9 -3 -2 -10 -9 -6 -10 -10 -3 -10 6 0 14 4 18
10 7 11 35 2 35 -12 0 -6 -8 -4 -17 3 -16 12 -17 12 -6 -2 7 -9 11 -19 8 -23
-3 -3 0 -2 6 3 6 5 17 7 25 4 9 -3 12 2 9 17 -2 13 -1 19 3 16 4 -4 7 -13 7
-19 0 -5 6 -12 14 -15 8 -3 11 0 7 6 -3 6 -2 13 3 16 11 7 9 -13 -3 -33 -6
-10 -5 -12 3 -7 6 4 17 3 24 -2 7 -5 20 -8 30 -7 9 2 15 -1 11 -6 -3 -5 -10
-7 -15 -4 -5 4 -9 -1 -9 -9 0 -18 16 -21 25 -6 4 6 18 4 38 -7 26 -13 30 -13
20 -1 -10 12 -10 15 2 15 8 0 15 -4 15 -8 0 -5 7 -6 15 -3 8 4 12 11 8 18 -4
6 1 5 10 -3 9 -7 17 -10 17 -6 0 4 8 -1 17 -12 10 -10 15 -14 10 -7 -4 6 0 17
8 24 13 11 14 10 10 -3 -4 -8 -1 -18 6 -23 7 -4 10 -3 6 3 -4 6 0 13 7 16 10
4 13 0 11 -14 -4 -21 11 -27 17 -7 3 7 7 5 11 -6 4 -10 3 -15 -3 -11 -6 3 -10
1 -10 -4 0 -6 6 -11 13 -11 8 0 7 -4 -3 -10 -9 -6 -10 -10 -3 -10 6 0 15 5 18
11 5 7 14 4 27 -8 21 -18 21 -18 8 7 l-13 25 23 -20 c13 -11 20 -14 16 -7 -4
6 -2 12 3 12 6 0 11 -4 11 -9 0 -5 7 -11 14 -14 10 -4 13 -1 9 9 -3 7 0 14 6
14 6 0 11 -6 11 -12 0 -9 4 -8 10 2 8 13 10 13 10 -1 0 -9 7 -16 15 -16 10 0
12 4 5 12 -7 8 -5 12 5 12 8 0 15 -4 15 -9 0 -4 7 -8 15 -8 8 0 15 8 15 18 0
14 2 15 9 2 6 -8 7 -18 4 -24 -3 -5 -1 -6 6 -2 6 4 8 13 4 19 -5 9 -3 9 8 0
16 -12 89 -15 89 -3 0 4 15 5 33 3 72 -11 112 -8 109 6 -3 12 -1 12 14 0 13
-10 16 -10 10 -1 -11 19 22 65 41 58 9 -4 23 -1 32 6 14 11 14 11 3 -4 -10
-12 -10 -18 -1 -24 8 -5 9 -3 4 6 -5 9 -2 10 14 5 13 -4 21 -2 21 5 0 6 -5 8
-12 4 -7 -5 -8 -3 -3 6 6 10 11 10 20 -3 13 -18 31 -24 20 -8 -3 5 0 13 6 17
8 5 9 3 5 -5 -6 -8 -2 -11 10 -9 12 2 18 -2 16 -10 -1 -8 2 -11 7 -7 6 3 8 12
5 19 -3 8 0 17 6 21 6 3 10 3 9 -2 -4 -26 2 -33 20 -24 24 13 46 -10 38 -39
-3 -11 -1 -18 4 -14 5 3 9 -1 9 -8 0 -10 3 -9 11 2 8 11 12 12 16 3 7 -20 23
-15 17 5 -4 10 -3 13 3 6 4 -6 16 -10 26 -8 11 1 15 -2 10 -9 -4 -7 1 -6 10 2
9 7 17 9 17 3 0 -15 28 -23 36 -10 4 6 3 8 -3 5 -6 -4 -13 0 -16 8 -4 10 -1
12 11 8 9 -4 20 -11 24 -17 5 -7 8 -6 8 4 1 11 4 10 17 -5 12 -16 14 -16 10
-3 -3 10 -2 20 4 23 5 4 8 1 7 -5 -2 -7 5 -14 15 -15 15 -3 16 -1 6 11 -10 12
-9 13 5 8 9 -3 16 -11 16 -16 0 -6 6 -6 14 1 11 10 17 8 26 -6 10 -16 11 -16
6 0 -3 9 -1 17 4 17 6 0 10 -4 10 -9 0 -5 10 -9 23 -8 12 0 29 -2 37 -4 8 -2
14 2 12 8 -3 17 15 17 21 1 4 -9 6 -9 6 1 1 11 5 10 16 -5 14 -18 14 -18 8 3
-3 14 -1 23 6 23 7 0 9 -4 6 -10 -3 -5 1 -10 10 -10 10 0 13 5 9 13 -5 7 0 6
11 -3 10 -8 16 -10 12 -4 -4 7 2 14 15 17 18 5 19 9 9 21 -11 13 -10 15 8 11
13 -2 18 1 15 10 -7 17 12 29 22 14 5 -8 3 -9 -6 -4 -9 6 -11 4 -6 -4 5 -7 10
-10 13 -7 3 3 15 0 27 -6 20 -11 20 -10 3 9 -14 16 -14 20 -2 20 8 0 12 -4 9
-8 -7 -12 40 -6 48 6 5 6 8 5 8 -4 0 -10 3 -11 13 -2 10 8 14 7 14 -3 0 -8 -8
-13 -19 -11 -10 2 -18 0 -18 -4 0 -5 13 -8 29 -7 15 0 28 5 27 11 -1 5 4 10 9
10 6 0 9 -3 7 -7 -1 -5 2 -8 8 -8 5 0 10 5 10 10 0 6 6 10 14 10 8 0 18 5 22
12 5 8 2 9 -9 5 -14 -5 -15 -3 -4 13 6 11 13 16 15 10 2 -5 8 -10 13 -10 4 0
6 6 3 14 -3 8 0 17 7 22 8 4 10 3 5 -4 -4 -7 -4 -12 1 -13 4 0 16 -2 26 -4 9
-2 15 0 12 5 -3 4 2 11 11 14 8 3 12 2 9 -4 -4 -6 6 -10 22 -10 16 0 35 -6 43
-12 8 -7 11 -9 7 -4 -11 14 12 36 31 29 11 -4 8 2 -7 15 -13 12 -20 22 -15 22
6 0 16 -6 23 -12 10 -11 11 -9 5 7 -7 18 -6 19 9 6 15 -12 17 -12 12 2 -4 8
-1 18 6 23 8 5 10 3 4 -7 -6 -10 -5 -11 4 -3 7 6 13 20 14 32 0 12 3 19 5 17
3 -2 17 2 32 10 15 8 31 11 35 7 5 -4 5 -2 2 4 -8 14 17 37 28 26 5 -4 5 -1 1
6 -6 11 -14 8 -33 -10 l-26 -23 14 23 c8 12 18 23 24 24 5 0 15 2 20 3 6 2 17
3 25 4 13 1 13 2 0 11 -11 7 -12 10 -2 10 10 0 10 4 -2 16 -24 23 -19 28 8 10
16 -10 27 -12 31 -6 4 6 1 9 -7 8 -14 -3 -19 33 -5 43 5 3 2 9 -6 12 -11 4
-15 0 -12 -14 2 -11 0 -17 -5 -14 -9 6 -8 24 3 43 5 6 4 12 -1 12 -5 0 -9 7
-9 15 0 11 4 12 14 3 11 -8 12 -7 7 6 -3 9 -10 16 -15 16 -5 0 -9 8 -10 18 0
14 -2 14 -9 -3 -7 -16 -9 -17 -9 -3 -1 9 -5 20 -11 23 -6 4 -7 -1 -3 -11 5
-13 3 -15 -13 -7 -10 6 -25 8 -31 6 -18 -6 -47 24 -30 30 7 4 6 6 -4 6 -9 1
-19 8 -23 16 -4 11 -11 13 -28 6 -32 -11 -94 -7 -113 9 -13 11 -15 10 -10 -2
4 -10 -2 -14 -24 -13 -16 0 -27 3 -25 7 3 4 -13 4 -33 2 -29 -4 -34 -3 -23 5
9 7 11 11 3 11 -7 0 -17 -8 -22 -17 -6 -10 -11 -13 -11 -6 0 8 -9 9 -30 3 -29
-8 -43 3 -17 14 6 2 2 4 -10 2 -12 -1 -26 -6 -30 -11 -5 -4 -1 -5 7 0 8 5 12
4 7 0 -9 -10 -57 -13 -51 -3 2 3 0 9 -6 13 -5 3 -10 0 -10 -7 0 -8 -10 -13
-23 -13 -29 2 -49 14 -42 26 4 5 1 9 -5 9 -6 0 -16 11 -22 25 -6 14 -16 25
-21 25 -5 0 -4 -7 3 -15 8 -9 8 -15 2 -15 -16 0 -20 22 -11 55 l9 30 -20 -25
-20 -25 15 44 c18 52 18 54 5 46 -5 -3 -10 -2 -10 4 0 5 -3 18 -6 28 -6 16 -5
16 9 -2 9 -11 17 -15 17 -9 0 6 -3 14 -7 18 -5 4 -8 11 -8 16 0 4 -19 23 -43
43 -38 32 -41 37 -26 51 8 9 11 16 5 16 -7 0 -9 12 -6 31 4 22 2 28 -6 23 -8
-5 -9 -3 -3 7 4 8 10 23 11 33 2 11 8 25 14 33 19 23 -2 14 -23 -9 -11 -13
-16 -16 -12 -8 15 28 15 50 -1 44 -8 -4 -15 -1 -15 5 0 6 5 11 12 11 6 0 8 3
5 6 -4 4 -13 2 -21 -5 -11 -9 -15 -8 -20 4 -3 9 -2 14 3 10 5 -3 7 7 5 22 -3
16 -5 34 -6 41 -1 6 -5 12 -10 12 -5 0 -6 5 -3 10 5 8 11 7 20 0 12 -10 12 -7
2 14 -7 14 -16 26 -22 26 -5 0 -4 4 4 9 11 7 6 12 -20 19 -19 6 -28 11 -21 11
6 1 12 6 12 12 0 5 -4 7 -10 4 -5 -3 -10 -1 -10 5 0 7 -7 10 -14 7 -10 -4 -13
-1 -10 8 9 23 -5 38 -22 24 -9 -7 -14 -8 -13 -3 3 19 -1 34 -12 34 -5 0 -7 -4
-4 -10 3 -6 -1 -7 -9 -4 -9 3 -16 12 -16 20 0 17 -12 18 -30 2 -12 -11 -12
-10 0 5 7 10 19 16 27 13 7 -3 13 -1 13 5 0 7 -12 9 -34 5 -20 -4 -37 -2 -41
4 -3 6 -11 7 -17 4 -6 -4 -14 -1 -18 6 -5 8 -9 7 -13 -5 -4 -9 -3 -13 2 -10 5
3 13 0 17 -6 4 -7 3 -9 -4 -5 -5 3 -13 0 -15 -6 -4 -10 -6 -10 -6 0 -1 7 -6
10 -13 6 -7 -5 -9 -2 -5 8 4 12 0 15 -16 11 -18 -4 -19 -3 -7 6 13 9 13 11 -1
11 -16 0 -22 28 -9 45 4 6 6 18 5 27 -2 11 2 15 13 11 9 -4 13 -2 9 4 -5 7 1
9 15 5 21 -5 22 -4 8 13 -8 10 -10 16 -3 12 7 -4 14 1 18 13 4 11 11 18 16 15
5 -4 19 1 31 9 12 9 18 16 12 16 -5 0 -16 -6 -23 -12 -11 -11 -12 -10 -6 0 7
12 53 36 66 34 3 0 6 6 6 14 0 11 -4 11 -19 -3 -10 -9 -18 -11 -18 -5 0 6 9
16 20 22 11 6 18 15 15 21 -4 5 -3 9 2 8 22 -4 44 2 38 11 -3 5 -13 7 -23 4
-15 -5 -15 -4 1 6 14 9 22 9 35 -2 15 -12 16 -11 3 5 -9 11 -21 15 -35 12 -12
-4 -16 -3 -11 2 16 13 19 46 3 38 -10 -6 -11 -5 0 6 15 16 16 33 1 24 -6 -4
-5 2 2 14 8 11 20 22 29 25 12 3 11 4 -2 5 -10 0 -18 8 -18 17 0 8 -4 13 -9 9
-5 -3 -12 -1 -15 4 -7 10 13 9 30 -1 6 -4 11 -1 11 7 0 8 -4 12 -8 9 -4 -2
-15 6 -25 18 -14 20 -16 21 -10 3 6 -19 5 -19 -8 -2 -11 14 -15 15 -20 5 -3
-7 -3 -3 -1 9 3 12 0 25 -6 29 -8 5 -9 3 -4 -6 5 -8 -8 -1 -28 14 -32 25 -35
31 -25 50 10 19 10 20 -5 7 -15 -12 -17 -11 -17 3 0 9 -5 16 -11 16 -5 0 -7
-6 -3 -12 5 -9 2 -8 -9 1 -13 10 -14 17 -6 27 8 10 6 12 -9 9 -16 -3 -20 1
-17 21 2 19 0 22 -11 13 -11 -9 -14 -8 -14 2 0 11 -2 11 -10 -1 -5 -8 -10 -10
-10 -5 0 6 -16 12 -36 13 -24 2 -33 -1 -29 -8 4 -7 -1 -7 -13 1 -16 10 -24 10
-35 1 -16 -13 -50 -6 -41 9 3 5 4 8 2 8 -2 -1 -12 -3 -23 -6z m70 -146 c-4 9
-1 11 11 6 13 -5 15 -3 9 8 -8 12 -6 12 8 1 9 -8 20 -11 26 -8 10 6 24 -21 16
-33 -2 -4 2 -8 10 -9 8 -1 22 -3 31 -4 15 -1 15 -2 0 -13 -15 -11 -15 -13 -1
-19 9 -3 13 -2 10 4 -3 6 1 10 9 10 10 0 13 -7 11 -20 -2 -11 0 -18 5 -15 5 3
26 -7 47 -21 21 -15 30 -24 21 -21 -24 8 -23 2 3 -22 15 -14 17 -21 8 -26 -8
-5 -10 -4 -5 3 4 7 5 12 2 12 -3 0 -10 -10 -17 -21 -8 -15 -8 -19 0 -15 6 4
11 2 11 -3 0 -6 -7 -11 -16 -11 -10 0 -14 -6 -11 -14 4 -10 0 -14 -14 -11 -13
3 -19 -2 -19 -16 0 -10 -5 -19 -11 -19 -5 0 -7 5 -3 11 3 6 -5 3 -20 -6 -14
-10 -26 -19 -26 -21 0 -7 25 1 31 10 4 4 9 3 13 -2 3 -6 -3 -13 -14 -17 -11
-4 -18 -11 -15 -16 3 -5 0 -6 -8 -3 -8 3 -20 -3 -28 -13 -13 -16 -12 -17 4 -4
15 12 17 12 11 -3 -4 -10 -13 -15 -24 -11 -10 3 -22 0 -26 -6 -5 -8 -3 -10 7
-4 8 5 10 4 6 0 -4 -5 -14 -10 -23 -11 -11 -2 -13 4 -9 19 5 18 4 19 -5 5 -10
-16 -21 -17 -53 -3 -16 7 -16 9 -2 19 14 10 13 13 -5 28 -11 10 -20 14 -20 8
0 -5 8 -14 18 -19 9 -6 12 -11 5 -11 -20 0 -42 29 -38 50 2 12 0 18 -6 15 -5
-4 -6 -12 -3 -18 5 -8 3 -8 -6 0 -13 12 -23 56 -10 48 3 -2 6 5 6 15 0 14 -4
16 -12 9 -9 -8 -11 -5 -7 11 5 17 2 21 -13 18 -11 -2 -18 2 -17 10 2 6 -1 12
-7 12 -5 0 -15 10 -21 23 -9 18 -9 20 2 10 19 -19 34 -16 18 4 -10 12 -11 15
-1 9 7 -4 19 -2 27 4 8 6 20 8 27 4 10 -6 10 -4 2 7 -8 11 -4 20 14 39 18 18
23 20 19 8 -8 -24 -4 -23 19 4 10 12 13 18 7 14 -8 -4 -13 -2 -13 5 0 6 8 9
19 6 16 -4 18 0 15 22 -5 25 -5 26 11 6 9 -11 14 -14 10 -8z m-232 -283 c11
-14 16 -28 13 -31 -3 -4 -6 -1 -6 6 0 7 -5 9 -12 5 -7 -4 -10 -3 -5 1 4 5 0
17 -10 27 -9 10 -12 18 -7 18 5 0 17 -12 27 -26z m127 -268 c0 -2 -7 -6 -15
-10 -8 -3 -15 -1 -15 4 0 6 7 10 15 10 8 0 15 -2 15 -4z m-74 -128 c4 -7 3 -8
-4 -4 -7 4 -12 2 -12 -3 0 -14 13 -14 26 -1 6 6 21 12 34 15 12 2 20 2 16 -2
-3 -3 -2 -11 3 -17 14 -18 -5 -57 -25 -49 -13 5 -16 3 -11 -10 3 -9 2 -19 -4
-22 -5 -4 -7 -11 -4 -16 4 -5 1 -9 -5 -9 -7 0 -9 7 -6 16 5 14 4 15 -9 4 -13
-11 -12 -15 8 -32 12 -11 16 -16 8 -13 -10 6 -11 2 -6 -16 7 -24 7 -24 -10 -4
-9 11 -13 14 -9 6 5 -10 3 -13 -9 -8 -12 4 -14 2 -10 -10 4 -10 2 -14 -4 -10
-5 3 -10 0 -10 -7 0 -7 7 -12 16 -11 9 1 10 0 3 -2 -7 -3 -9 -9 -6 -15 4 -6
-2 -5 -15 1 -11 7 -21 10 -22 9 -7 -27 -7 -48 0 -52 4 -3 7 6 5 20 -1 14 0 23
4 19 3 -3 7 -24 7 -45 0 -21 4 -42 8 -46 4 -4 7 -12 7 -18 0 -5 -6 -1 -14 9
-13 18 -13 17 -12 -6 0 -13 -3 -25 -9 -27 -5 -2 -18 -11 -27 -19 -10 -9 -18
-12 -18 -7 0 5 -5 2 -10 -7 -11 -19 -6 -55 12 -76 11 -14 10 -15 -12 -8 l-25
8 25 -22 c14 -13 19 -19 11 -15 -10 5 -13 3 -8 -8 3 -9 0 -21 -6 -28 -10 -10
-8 -11 8 -6 11 4 16 4 12 0 -4 -4 -1 -14 6 -22 8 -10 8 -13 0 -9 -7 4 -15 -5
-22 -25 -14 -40 -14 -43 4 -28 8 7 12 17 8 23 -3 6 -1 7 6 3 9 -6 9 -11 0 -22
-6 -8 -9 -23 -6 -34 3 -11 2 -18 -3 -15 -4 3 -10 -4 -13 -16 -4 -16 -2 -19 16
-15 12 3 16 3 10 0 -21 -9 -16 -37 5 -30 14 5 14 4 -2 -9 -22 -17 -14 -20 13
-6 11 6 22 6 32 -1 11 -8 10 -9 -4 -4 -12 4 -17 2 -15 -6 3 -7 11 -13 18 -13
7 0 15 -6 18 -12 2 -7 -1 -13 -8 -13 -6 0 -8 5 -4 12 4 7 3 8 -4 4 -6 -4 -9
-13 -6 -21 4 -8 10 -12 15 -9 5 3 6 -2 3 -10 -3 -9 -10 -16 -16 -16 -5 0 -7 4
-4 9 3 5 -2 15 -11 22 -15 12 -16 12 -8 -1 6 -8 10 -22 10 -30 0 -8 4 -21 8
-27 12 -19 -4 -15 -20 5 -14 16 -14 16 -9 0 3 -10 0 -20 -6 -24 -6 -4 -9 -3
-6 2 3 5 -1 15 -9 23 -13 12 -14 11 -8 -10 3 -13 3 -19 -2 -13 -4 6 -16 10
-26 8 -10 -1 -16 3 -14 9 2 7 -5 18 -17 25 -14 9 -15 12 -4 8 10 -3 20 0 24 6
4 7 3 8 -4 4 -7 -4 -12 -2 -12 4 0 6 -4 8 -10 5 -5 -3 -10 -1 -10 5 0 6 -4 8
-10 5 -5 -3 -10 -2 -10 3 0 6 -11 9 -24 8 -21 -1 -23 -4 -13 -21 9 -18 9 -19
-6 -6 -10 7 -17 20 -17 28 0 8 -5 11 -10 8 -16 -10 -24 23 -10 40 11 13 10 14
-4 9 -9 -3 -16 -1 -16 5 0 6 6 11 14 11 7 0 20 8 27 18 13 15 12 16 -3 3 -10
-7 -18 -9 -18 -3 0 5 11 17 25 26 14 9 24 20 23 24 -1 4 4 18 12 32 12 23 12
24 -4 11 -14 -12 -16 -12 -10 3 3 9 10 16 15 16 4 0 6 8 2 18 -5 14 -3 13 10
-3 16 -20 16 -19 12 5 -4 24 -4 25 12 5 11 -14 14 -15 10 -4 -3 9 0 22 6 29 9
10 9 11 -3 5 -11 -6 -10 -3 2 11 14 16 15 23 6 32 -9 9 -9 12 0 12 7 0 12 4
12 10 0 5 -8 7 -17 3 -14 -5 -12 1 7 23 14 15 18 23 9 16 -14 -10 -18 -10 -22
2 -3 8 1 20 8 26 8 7 12 17 9 22 -4 6 3 5 14 -1 23 -12 26 -9 36 32 4 18 2 27
-5 27 -7 0 -9 3 -6 6 4 4 15 1 24 -7 17 -13 17 -12 2 6 -25 31 -34 49 -21 41
7 -4 12 -2 12 4 0 8 6 8 23 0 21 -11 21 -10 3 4 -10 9 -22 13 -27 11 -4 -3
-10 -1 -14 5 -6 9 17 15 40 10 5 -1 6 2 2 7 -5 4 -14 8 -19 8 -6 0 -13 6 -16
13 -2 8 3 10 15 6 13 -5 12 -2 -4 10 -13 10 -23 23 -23 29 0 7 4 6 10 -3 8
-13 11 -13 22 -1 10 10 10 12 1 7 -7 -4 -13 -3 -13 3 0 5 9 13 20 16 11 3 20
11 20 17 0 6 -6 6 -15 -2 -9 -7 -18 -11 -20 -8 -3 3 6 11 20 18 14 8 23 20 21
27 -3 7 -1 15 5 18 5 4 7 17 5 30 -4 19 -1 23 15 20 12 -2 17 0 13 7 -4 5 0
14 7 19 18 11 17 11 25 -3z m449 0 c4 4 2 -3 -4 -16 -12 -22 -11 -23 9 -12 12
6 24 9 27 7 3 -3 -8 -12 -24 -21 -15 -8 -22 -15 -14 -16 8 0 11 -6 7 -16 -3
-9 -2 -12 5 -9 6 4 8 13 6 19 -3 7 1 13 8 13 20 0 2 -30 -31 -52 -14 -9 -23
-12 -20 -6 10 15 -7 14 -23 -1 -11 -11 -11 -9 -2 9 14 27 14 36 1 28 -5 -3
-10 -2 -10 4 0 5 5 13 10 16 6 4 10 14 8 23 -4 26 11 45 26 33 7 -6 16 -7 21
-3z m-269 -60 c5 -7 3 -8 -6 -3 -8 5 -11 4 -6 -3 4 -6 13 -9 21 -6 8 4 13 10
10 14 -3 5 4 6 15 3 11 -3 18 -9 15 -13 -3 -5 4 -6 15 -3 12 3 20 0 20 -6 0
-7 5 -9 12 -5 7 4 8 3 4 -4 -4 -7 -2 -12 5 -12 7 0 9 -3 6 -7 -4 -3 -15 1 -25
10 -15 14 -19 15 -19 2 0 -8 4 -12 8 -10 13 9 20 -27 7 -42 -6 -8 -7 -13 -2
-12 18 3 37 -1 31 -7 -8 -9 16 -33 27 -26 5 3 6 0 3 -6 -8 -12 2 -44 12 -37 9
5 7 -32 -2 -41 -4 -4 -1 -14 6 -22 9 -13 9 -14 0 -8 -7 4 -13 2 -13 -3 0 -6 6
-11 13 -11 8 0 7 -4 -3 -10 -13 -9 -13 -10 0 -10 13 0 13 -1 0 -10 -13 -8 -12
-10 3 -10 10 0 15 -5 12 -10 -4 -7 3 -9 19 -6 15 3 24 1 21 -5 -4 -5 -1 -9 4
-9 6 0 11 -5 11 -11 0 -5 -4 -8 -9 -5 -5 4 -8 -2 -6 -11 2 -10 4 -22 4 -26 1
-5 5 -6 10 -3 13 9 7 -19 -8 -38 -12 -14 -11 -16 5 -16 15 0 16 -2 5 -9 -21
-14 -24 -44 -3 -36 14 5 14 4 1 -12 -18 -22 -18 -79 0 -75 7 1 10 -2 6 -8 -3
-6 -11 -8 -16 -5 -5 4 -9 -1 -9 -10 0 -10 5 -13 13 -9 8 5 7 2 -2 -9 -9 -11
-18 -14 -25 -8 -7 6 -18 4 -30 -5 -11 -8 -14 -14 -8 -14 16 0 10 -23 -8 -32
-12 -5 -11 -7 4 -7 16 -1 17 -3 5 -18 -10 -11 -10 -14 -1 -9 6 4 12 2 12 -3 0
-6 -6 -11 -12 -12 -10 0 -10 -2 0 -6 10 -4 10 -8 1 -19 -9 -11 -9 -14 1 -14
10 0 10 -3 0 -15 -6 -8 -8 -20 -4 -26 4 -8 3 -9 -4 -5 -7 4 -12 2 -12 -3 0 -6
-7 -11 -15 -11 -8 0 -15 5 -15 12 0 6 -3 8 -6 5 -4 -4 -1 -14 7 -24 12 -14 12
-16 0 -8 -11 6 -13 4 -8 -8 3 -10 2 -17 -3 -17 -6 0 -10 6 -11 13 0 6 -5 1
-10 -12 l-10 -24 -20 22 c-20 21 -39 21 -39 -2 0 -8 3 -7 9 2 7 11 11 10 20
-7 9 -17 8 -20 -7 -17 -9 2 -19 4 -22 5 -3 1 -9 2 -13 1 -5 -1 -6 3 -2 9 9 14
-8 13 -25 -2 -8 -7 -5 -1 8 13 26 30 27 35 6 43 -14 5 -15 4 -5 -8 9 -11 8
-15 -3 -19 -11 -4 -13 -1 -9 10 5 12 3 14 -8 8 -8 -5 -5 1 5 13 11 12 15 22
10 22 -5 0 -2 5 6 11 13 9 13 10 0 6 -8 -2 -14 -10 -12 -16 1 -7 -2 -10 -8 -6
-7 4 -7 12 0 25 13 25 12 40 -1 17 -6 -9 -15 -15 -20 -11 -6 4 -4 13 5 23 14
15 14 18 1 18 -8 0 -12 -4 -9 -9 3 -4 0 -8 -5 -8 -6 0 -11 5 -11 11 0 5 -4 8
-9 4 -5 -3 -12 -1 -15 4 -4 5 -1 13 5 17 8 5 9 3 4 -6 -5 -8 -4 -11 2 -7 6 4
8 18 5 33 -3 19 -7 22 -13 12 -10 -15 -12 -7 -3 16 3 9 10 13 15 10 5 -3 6 2
3 11 -4 8 0 23 7 33 11 14 11 15 -1 5 -20 -18 -35 -16 -20 2 9 11 9 15 1 15
-7 0 -10 4 -7 8 2 4 -5 14 -17 21 -18 11 -20 11 -9 0 18 -19 15 -33 -4 -14
-10 9 -14 26 -12 40 3 13 1 29 -3 37 -4 7 -3 18 3 26 9 10 8 12 -2 10 -7 -2
-15 3 -17 10 -3 8 1 10 13 5 13 -5 15 -3 8 8 -13 21 -14 38 -2 46 7 4 8 1 3
-7 -5 -9 -4 -11 3 -6 7 4 12 14 12 21 0 9 6 12 17 8 12 -5 14 -3 8 7 -6 10 -4
12 7 8 11 -5 14 0 10 18 -2 13 -8 22 -12 19 -9 -5 -5 53 4 62 3 3 0 13 -7 21
-9 13 -9 14 1 8 6 -4 13 -2 13 3 3 21 4 26 13 40 8 12 12 11 24 -5 14 -18 14
-18 8 0 -5 14 -3 17 10 12 14 -5 15 -4 4 9 -12 14 -7 20 15 15 6 -1 0 9 -11
22 -19 21 -23 55 -5 44 4 -3 6 12 5 32 -1 20 3 43 8 50 13 15 15 15 24 0z
m-411 -17 c3 -5 2 -12 -3 -15 -5 -3 -9 1 -9 9 0 17 3 19 12 6z m895 -52 c0 -5
-4 -9 -8 -9 -5 0 -9 7 -9 15 0 8 4 12 9 9 4 -3 8 -9 8 -15z m-76 -182 c4 4 4
0 0 -10 -4 -10 -1 -17 6 -17 10 0 10 -3 0 -15 -12 -14 -7 -19 13 -16 5 1 6 -3
2 -9 -3 -6 -10 -8 -14 -6 -4 3 -13 -5 -21 -17 -12 -20 -11 -21 2 -9 13 10 17
10 21 -2 3 -7 0 -19 -6 -25 -8 -8 -8 -11 1 -11 7 0 12 -5 12 -11 0 -5 -4 -7
-10 -4 -5 3 -10 1 -10 -4 0 -6 7 -11 15 -11 8 0 14 -5 13 -12 -2 -6 8 -12 21
-12 18 -1 25 -7 26 -26 2 -14 -2 -30 -7 -36 -5 -8 -2 -14 9 -19 16 -6 16 -8 3
-18 -22 -17 -23 -37 -2 -37 12 0 14 -2 4 -9 -10 -6 -9 -12 5 -27 10 -11 14
-15 10 -8 -4 7 -4 15 2 18 13 8 19 -4 16 -31 -1 -17 2 -20 10 -13 9 7 16 6 24
-4 9 -11 9 -16 0 -22 -8 -5 -9 -3 -4 6 6 9 4 11 -5 5 -10 -6 -9 -11 6 -23 18
-13 17 -14 -10 -8 l-30 7 25 -20 c22 -19 23 -20 3 -15 -15 4 -27 -1 -38 -17
-9 -13 -16 -18 -16 -12 0 17 -38 23 -44 6 -4 -9 -13 -13 -22 -9 -13 5 -14 4
-6 -7 12 -14 7 -27 -10 -27 -5 0 -6 5 -2 12 4 7 3 8 -5 4 -9 -6 -9 -11 -1 -21
8 -9 7 -14 -4 -18 -9 -4 -18 -1 -22 5 -5 7 -2 8 7 3 8 -5 10 -4 6 0 -10 11
-37 15 -37 6 0 -4 6 -13 13 -20 10 -11 8 -11 -11 -2 -12 7 -20 16 -17 21 3 5
0 12 -6 16 -7 4 -9 3 -6 -3 3 -5 0 -10 -8 -10 -8 0 -12 4 -9 8 2 4 1 9 -3 12
-5 2 -2 2 5 1 6 -2 12 2 12 8 0 6 7 5 18 -3 15 -13 16 -12 4 3 -7 9 -22 15
-33 13 -11 -2 -17 0 -14 6 4 5 11 7 16 4 5 -4 9 -2 9 4 0 6 6 8 13 5 8 -3 19
2 26 10 10 12 9 20 -5 41 -9 14 -13 25 -8 24 23 -4 26 2 8 16 -18 14 -18 15 0
8 14 -4 17 -2 14 8 -3 8 -11 13 -18 11 -11 -3 -11 0 0 12 14 18 25 22 15 6 -3
-5 -4 -10 -1 -10 17 0 13 22 -6 29 -21 9 -21 10 -3 11 17 0 17 2 5 10 -10 6
-11 10 -2 10 6 0 12 4 12 9 0 6 -9 8 -21 6 -17 -3 -19 -2 -9 10 6 8 19 11 28
9 15 -5 15 -4 -1 9 -18 15 -33 62 -16 52 5 -4 7 -10 4 -15 -3 -4 1 -10 8 -13
7 -3 13 3 13 13 0 10 -3 17 -7 14 -4 -2 -9 2 -12 9 -7 20 -7 27 1 26 4 -1 6
-5 4 -11 -1 -5 2 -7 7 -3 11 6 4 35 -9 35 -4 0 -11 7 -14 16 -6 15 -4 15 11 3
14 -11 13 -7 -4 23 -20 34 -20 37 -3 26 10 -7 17 -15 14 -19 -2 -4 4 -13 13
-20 15 -12 16 -12 8 1 -5 8 -10 21 -11 27 -1 7 -9 20 -18 29 -22 21 -20 27 4
14 25 -13 26 -7 3 16 -17 17 -17 18 1 11 13 -5 17 -3 13 7 -7 19 3 28 18 16 7
-5 15 -7 19 -3z m194 -133 c2 -1 -4 -4 -13 -8 -9 -3 -14 -2 -12 2 7 10 -19 32
-29 24 -4 -4 -4 -2 0 5 3 6 2 14 -4 18 -5 3 -10 1 -10 -6 0 -7 -3 -10 -6 -6
-3 3 -3 11 1 17 5 8 17 2 39 -17 17 -15 32 -29 34 -29z m-884 34 c-3 -4 -9 -8
-15 -8 -5 0 -9 4 -9 8 0 5 7 9 15 9 8 0 12 -4 9 -9z m1 -36 c-3 -3 -11 0 -18
7 -9 10 -8 11 6 5 10 -3 15 -9 12 -12z m116 -109 c13 -16 12 -17 -3 -4 -10 7
-18 15 -18 17 0 8 8 3 21 -13z m-403 -67 c-7 -8 -15 -12 -17 -11 -5 6 10 25
20 25 5 0 4 -6 -3 -14z m-593 -144 c-3 -3 -11 0 -18 7 -9 10 -8 11 6 5 10 -3
15 -9 12 -12z m1510 -1 c3 -5 2 -12 -3 -15 -5 -3 -9 1 -9 9 0 17 3 19 12 6z
m-1230 -31 c8 7 12 5 12 -5 0 -8 -4 -12 -8 -9 -4 2 -10 0 -14 -6 -10 -16 -21
-11 -21 10 0 13 4 16 10 10 6 -6 14 -6 21 0z m1402 -5 c0 -8 -4 -12 -9 -9 -5
3 -6 10 -3 15 9 13 12 11 12 -6z m537 3 c-3 -4 -11 -5 -19 -1 -10 3 -15 -1
-14 -13 0 -12 3 -14 6 -6 4 10 8 10 21 0 9 -7 13 -8 10 -3 -4 6 2 16 12 23 15
9 21 7 34 -13 9 -13 16 -29 16 -35 0 -6 6 -8 13 -4 8 5 8 3 -2 -9 -7 -9 -11
-26 -8 -36 3 -15 1 -18 -11 -14 -11 5 -13 3 -7 -7 5 -9 4 -11 -4 -6 -8 6 -9
12 -2 20 8 9 7 13 -3 13 -8 0 -13 -9 -11 -22 1 -13 -4 -22 -12 -22 -8 0 -12 7
-8 16 4 14 4 14 -8 1 -15 -18 -37 -24 -37 -10 0 6 -5 10 -11 10 -6 0 -9 -7 -5
-15 5 -14 -5 -20 -27 -16 -5 1 -6 -3 -2 -9 3 -6 12 -8 18 -4 7 3 3 -2 -8 -11
-11 -9 -28 -14 -38 -11 -9 2 -15 0 -11 -5 3 -5 0 -9 -5 -9 -6 0 -11 5 -11 10
0 6 -5 10 -11 10 -5 0 -8 -3 -6 -7 2 -5 -7 -18 -20 -30 -13 -12 -23 -18 -23
-14 0 5 7 14 15 21 8 7 15 17 15 23 0 5 -9 -2 -20 -16 -11 -14 -20 -29 -20
-34 0 -4 -9 -14 -21 -21 -12 -8 -18 -9 -15 -3 4 5 2 12 -4 16 -5 3 -10 1 -10
-6 0 -8 -5 -7 -17 2 -20 17 -17 18 -42 -5 -17 -15 -20 -16 -16 -4 5 12 0 15
-26 12 -18 -2 -35 -6 -37 -9 -3 -3 -12 1 -20 8 -13 9 -14 9 -8 0 4 -7 2 -13
-3 -13 -6 0 -11 6 -11 13 0 9 -3 8 -9 -2 -5 -8 -14 -10 -22 -5 -18 11 -49 13
-43 2 8 -13 -10 -10 -25 4 -11 10 -13 10 -7 1 4 -7 3 -13 -1 -13 -5 0 -15 6
-22 13 -11 10 -12 9 -6 -1 8 -16 -26 -13 -37 3 -5 6 -8 5 -8 -2 0 -7 -5 -13
-11 -13 -5 0 -7 6 -3 13 5 7 0 6 -11 -3 -14 -12 -19 -12 -23 -2 -3 10 -8 8
-18 -5 -13 -17 -14 -17 -8 0 4 11 1 17 -9 17 -9 0 -19 4 -22 10 -3 6 1 7 9 4
11 -4 16 0 16 10 0 19 40 38 55 25 22 -17 70 4 61 27 -5 14 9 27 32 30 7 1 9
-3 5 -9 -3 -7 4 -3 17 8 13 11 20 15 17 9 -5 -8 5 -11 27 -11 24 1 32 5 28 15
-4 11 -6 11 -13 0 -7 -10 -9 -11 -9 0 0 8 -5 10 -12 6 -8 -4 -10 -3 -5 2 5 5
12 8 15 7 16 -3 42 19 36 30 -4 7 -4 9 1 5 4 -4 14 -3 22 4 7 6 16 8 20 5 3
-4 13 -1 21 6 13 10 14 9 8 -2 -7 -10 -3 -12 13 -6 20 6 26 -3 22 -29 -1 -4 3
-14 9 -20 5 -7 7 -16 4 -19 -6 -6 3 -5 41 3 21 5 36 0 30 -10 -3 -5 -1 -10 4
-10 10 0 16 21 12 43 0 4 4 7 10 7 6 0 8 -9 4 -21 -5 -15 -4 -19 4 -15 6 4 11
14 11 22 0 8 5 14 11 14 5 0 8 4 4 9 -10 17 13 21 29 5 9 -8 16 -12 16 -7 0 5
-5 14 -12 21 -9 9 -9 12 3 13 7 1 18 1 22 0 5 -1 5 4 1 10 -5 9 -2 10 11 5 15
-5 16 -4 5 9 -10 12 -10 15 4 16 29 2 34 4 41 11 4 4 -5 5 -21 2 -16 -2 -24
-1 -17 3 14 10 113 11 107 1z m-2020 -10 c-3 -5 -10 -6 -15 -3 -5 4 -17 1 -26
-5 -15 -9 -14 -10 6 -4 18 5 22 3 15 -7 -7 -12 -5 -12 9 -1 9 8 22 10 28 6 9
-5 10 -2 6 9 -4 11 -2 14 8 10 8 -3 13 -9 10 -13 -9 -15 15 -22 30 -10 11 9
15 9 15 1 0 -8 4 -8 14 1 8 7 11 18 8 23 -3 6 2 4 11 -4 9 -7 14 -17 11 -22
-3 -5 -1 -9 4 -9 5 0 15 -11 22 -25 7 -14 15 -23 18 -20 3 2 0 10 -5 17 -12
16 -24 48 -17 48 2 0 9 -11 14 -25 5 -14 15 -24 22 -23 7 2 13 -7 14 -19 1
-21 19 -45 39 -54 5 -2 9 -8 7 -13 -2 -5 4 -4 12 3 9 7 13 17 10 22 -3 5 2 9
10 9 10 0 13 6 10 15 -8 20 25 32 37 14 5 -9 9 -9 9 -2 0 12 24 12 36 0 12
-12 36 -8 28 5 -4 7 -3 8 5 4 9 -6 9 -11 0 -22 -15 -18 11 -20 30 -1 9 7 11 7
8 1 -4 -7 0 -15 9 -18 9 -4 14 -9 11 -13 -4 -3 -13 0 -22 7 -8 7 -15 8 -15 3
0 -5 12 -15 26 -21 14 -7 23 -8 19 -2 -6 10 -3 11 33 14 9 1 24 5 32 11 13 7
13 6 2 -7 -10 -13 -10 -18 -1 -24 8 -5 9 -3 4 6 -6 10 -3 12 14 7 19 -5 21 -3
9 11 -7 9 8 -3 34 -27 26 -25 45 -48 43 -52 -8 -12 23 -31 37 -23 8 5 8 1 -2
-11 -14 -17 -14 -18 9 -6 13 7 21 8 17 3 -4 -6 1 -15 9 -19 13 -8 12 -11 -9
-22 -13 -8 -22 -19 -19 -27 3 -9 -2 -11 -16 -7 -12 3 -21 1 -21 -4 0 -5 -7
-10 -15 -10 -8 0 -12 4 -9 9 3 4 -4 8 -15 8 -10 0 -21 -3 -24 -7 -2 -5 -2 -2
0 5 2 10 -4 11 -20 6 -12 -3 -19 -3 -15 1 4 4 -5 18 -20 32 -15 13 -21 22 -14
18 6 -3 12 -1 12 4 0 14 -17 14 -25 2 -3 -6 -14 -8 -25 -6 -11 2 -22 0 -25 -6
-4 -5 -12 -9 -18 -9 -7 0 -4 5 6 11 9 5 17 15 17 21 0 9 -3 9 -12 0 -16 -16
-31 -15 -23 1 4 6 0 4 -8 -5 -18 -23 -28 -23 -21 0 5 16 5 16 -9 0 -13 -16
-15 -16 -37 -1 -13 9 -20 11 -16 5 4 -7 1 -12 -8 -12 -9 0 -16 -5 -16 -11 0
-8 -4 -9 -13 0 -8 6 -17 8 -21 4 -4 -4 -4 1 0 12 6 16 5 18 -7 9 -22 -17 -58
-24 -53 -10 3 7 -2 13 -10 13 -8 0 -13 -3 -11 -7 2 -4 -3 -7 -11 -7 -8 0 -13
6 -10 13 3 7 -3 18 -12 26 -13 11 -14 11 -7 -1 6 -10 4 -12 -4 -7 -7 5 -10 14
-8 20 3 7 -1 13 -9 13 -7 0 -11 -4 -8 -9 3 -4 -1 -6 -8 -4 -47 15 -69 16 -62
4 4 -7 -5 -2 -19 11 -20 18 -24 28 -16 37 7 9 6 15 -3 21 -17 10 -58 11 -51 1
2 -5 14 -6 26 -3 12 2 16 2 9 -1 -6 -3 -9 -10 -6 -16 4 -6 -3 -5 -15 1 -12 7
-26 9 -31 6 -6 -4 -7 1 -3 12 6 16 5 16 -10 5 -14 -12 -19 -12 -32 2 -19 19
-6 22 15 4 8 -7 6 -3 -4 10 -16 18 -17 26 -8 47 8 18 8 26 0 31 -6 4 -9 3 -5
-2 3 -5 -1 -18 -9 -29 -8 -10 -14 -14 -14 -9 0 6 3 14 8 18 4 4 7 13 7 19 0 6
11 12 25 12 14 0 24 5 23 10 -1 6 14 11 32 11 19 0 32 -3 29 -8z m571 -17 c-6
-5 -25 10 -25 20 0 5 6 4 14 -3 8 -7 12 -15 11 -17z m-188 -48 c0 -8 -5 -9
-11 -4 -6 5 -19 7 -28 6 -10 -2 -20 0 -22 4 -3 4 10 7 28 7 20 0 33 -5 33 -13z
m-117 -60 c0 -2 -11 4 -25 13 -14 9 -25 20 -25 25 0 5 11 -1 25 -13 14 -12 25
-23 25 -25z m1996 21 c1 -9 0 -13 -4 -10 -3 4 -7 14 -8 22 -1 9 0 13 4 10 3
-4 7 -14 8 -22z m-533 8 c4 9 6 9 6 1 2 -20 -16 -24 -30 -5 -13 15 -12 16 3 4
13 -10 17 -10 21 0z m-1066 -107 c0 -8 -4 -12 -9 -9 -5 3 -6 10 -3 15 9 13 12
11 12 -6z m-504 -30 c-3 -9 -8 -14 -10 -11 -3 3 -2 9 2 15 9 16 15 13 8 -4z
m-292 -12 c13 -15 12 -15 -8 -4 -24 12 -29 21 -14 21 5 0 15 -7 22 -17z m865
-38 c-20 -15 -36 -19 -36 -10 0 5 38 23 50 24 3 0 -4 -6 -14 -14z m1334 -10
c-7 -9 -15 -13 -19 -10 -3 3 1 10 9 15 21 14 24 12 10 -5z m-1260 -135 c0 -5
-2 -10 -4 -10 -3 0 -8 5 -11 10 -3 6 -1 10 4 10 6 0 11 -4 11 -10z m710 -16
c0 -2 -9 0 -20 6 -11 6 -20 13 -20 16 0 2 9 0 20 -6 11 -6 20 -13 20 -16z"/>
<path d="M1396 2142 c-3 -5 1 -9 9 -9 8 0 12 4 9 9 -3 4 -7 8 -9 8 -2 0 -6 -4
-9 -8z"/>
<path d="M1290 1920 c-9 -6 -10 -10 -3 -10 6 0 15 5 18 10 8 12 4 12 -15 0z"/>
<path d="M1215 1900 c3 -5 8 -10 11 -10 2 0 4 5 4 10 0 6 -5 10 -11 10 -5 0
-7 -4 -4 -10z"/>
<path d="M1094 1558 c-4 -7 -4 -10 1 -6 4 4 15 2 24 -5 14 -11 14 -10 2 6 -16
20 -18 21 -27 5z"/>
<path d="M1010 1495 c-8 -10 -9 -15 -2 -15 6 0 9 -7 6 -15 -4 -8 -2 -15 3 -15
4 0 9 14 9 30 2 34 1 35 -16 15z"/>
<path d="M1041 1484 c0 -11 3 -14 6 -6 3 7 2 16 -1 19 -3 4 -6 -2 -5 -13z"/>
<path d="M950 1286 c0 -2 7 -7 16 -10 8 -3 12 -2 9 4 -6 10 -25 14 -25 6z"/>
<path d="M995 1280 c-3 -5 -1 -10 4 -10 6 0 11 5 11 10 0 6 -2 10 -4 10 -3 0
-8 -4 -11 -10z"/>
<path d="M963 1215 c-20 -22 -15 -30 5 -12 10 10 22 14 27 10 4 -5 5 -2 1 5
-9 15 -18 15 -33 -3z"/>
<path d="M822 925 c4 -4 3 -14 -3 -22 -7 -8 -8 -13 -1 -13 15 0 23 28 9 36 -7
4 -9 4 -5 -1z"/>
<path d="M1476 1561 c-4 -5 -2 -12 3 -15 5 -4 12 -2 15 3 4 5 2 12 -3 15 -5 4
-12 2 -15 -3z"/>
<path d="M1315 1440 c-3 -5 -1 -10 4 -10 6 0 11 5 11 10 0 6 -2 10 -4 10 -3 0
-8 -4 -11 -10z"/>
<path d="M1200 1406 c0 -2 7 -7 16 -10 8 -3 12 -2 9 4 -6 10 -25 14 -25 6z"/>
<path d="M1165 1321 c-3 -5 -2 -12 3 -15 5 -3 9 1 9 9 0 17 -3 19 -12 6z"/>
<path d="M1149 1248 c-5 -18 -6 -38 -1 -34 7 8 12 36 6 36 -2 0 -4 -1 -5 -2z"/>
<path d="M1450 1100 c-9 -6 -10 -10 -3 -10 6 0 15 5 18 10 8 12 4 12 -15 0z"/>
<path d="M1370 720 c-6 -11 -8 -20 -6 -20 3 0 10 9 16 20 6 11 8 20 6 20 -3 0
-10 -9 -16 -20z"/>
<path d="M1626 1247 c3 -10 9 -15 12 -12 3 3 0 11 -7 18 -10 9 -11 8 -5 -6z"/>
<path d="M1706 1027 c3 -10 9 -15 12 -12 3 3 0 11 -7 18 -10 9 -11 8 -5 -6z"/>
<path d="M1710 786 c0 -2 7 -7 16 -10 8 -3 12 -2 9 4 -6 10 -25 14 -25 6z"/>
<path d="M2330 755 c0 -8 4 -15 10 -15 5 0 7 7 4 15 -4 8 -8 15 -10 15 -2 0
-4 -7 -4 -15z"/>
<path d="M2350 699 c0 -5 5 -7 10 -4 6 3 10 8 10 11 0 2 -4 4 -10 4 -5 0 -10
-5 -10 -11z"/>
<path d="M1877 682 c-10 -10 -17 -22 -17 -27 0 -4 9 2 20 15 11 13 20 25 20
27 0 7 -8 2 -23 -15z"/>
<path d="M1918 683 c7 -3 16 -2 19 1 4 3 -2 6 -13 5 -11 0 -14 -3 -6 -6z"/>
<path d="M2025 629 c-4 -6 -5 -12 -2 -15 2 -3 7 2 10 11 7 17 1 20 -8 4z"/>
<path d="M1735 621 c-6 -11 13 -26 22 -17 4 3 1 6 -6 6 -7 0 -9 5 -6 10 3 6 4
10 1 10 -3 0 -7 -4 -11 -9z"/>
<path d="M776 618 c3 -5 10 -6 15 -3 13 9 11 12 -6 12 -8 0 -12 -4 -9 -9z"/>
<path d="M300 606 c0 -2 8 -10 18 -17 15 -13 16 -12 3 4 -13 16 -21 21 -21 13z"/>
<path d="M891 583 c7 -12 15 -20 18 -17 3 2 -3 12 -13 22 -17 16 -18 16 -5 -5z"/>
<path d="M575 520 c-3 -5 -1 -10 4 -10 6 0 11 5 11 10 0 6 -2 10 -4 10 -3 0
-8 -4 -11 -10z"/>
<path d="M756 522 c-3 -5 1 -9 9 -9 8 0 12 4 9 9 -3 4 -7 8 -9 8 -2 0 -6 -4
-9 -8z"/>
<path d="M815 501 c-6 -11 13 -26 22 -17 4 3 1 6 -6 6 -7 0 -9 5 -6 10 3 6 4
10 1 10 -3 0 -7 -4 -11 -9z"/>
<path d="M900 460 c18 -12 30 -13 30 -2 0 4 -10 9 -22 9 -18 2 -20 0 -8 -7z"/>
<path d="M1476 2281 c-3 -5 5 -16 19 -25 17 -11 26 -13 31 -4 4 7 3 8 -4 4 -7
-4 -12 -2 -12 3 0 6 -7 11 -16 11 -8 0 -12 5 -9 10 3 6 4 10 1 10 -3 0 -7 -4
-10 -9z"/>
<path d="M1599 2108 c-5 -16 -4 -46 2 -42 4 2 7 13 6 24 -1 17 -5 26 -8 18z"/>
<path d="M1575 1960 c-3 -5 -1 -10 4 -10 6 0 11 5 11 10 0 6 -2 10 -4 10 -3 0
-8 -4 -11 -10z"/>
<path d="M1007 1902 c12 -11 20 -22 18 -24 -3 -3 2 -5 10 -5 19 0 1 24 -29 38
-20 10 -20 9 1 -9z"/>
<path d="M1170 1751 c0 -5 7 -12 16 -15 14 -5 15 -4 4 9 -14 17 -20 19 -20 6z"/>
<path d="M1587 1686 c-4 -10 -1 -13 8 -9 8 3 12 9 9 14 -7 12 -11 11 -17 -5z"/>
<path d="M1790 1297 c0 -2 6 -10 14 -16 11 -9 16 -9 22 1 4 7 4 10 -1 6 -4 -4
-14 -3 -22 3 -7 6 -13 9 -13 6z"/>
<path d="M1793 1255 c0 -8 4 -12 9 -9 5 3 6 10 3 15 -9 13 -12 11 -12 -6z"/>
<path d="M740 1100 c-8 -5 -12 -12 -9 -15 4 -3 12 1 19 10 14 17 11 19 -10 5z"/>
<path d="M1935 900 c3 -5 8 -10 11 -10 2 0 4 5 4 10 0 6 -5 10 -11 10 -5 0 -7
-4 -4 -10z"/>
<path d="M2295 902 c3 -3 21 -7 41 -8 19 -1 32 1 29 4 -3 3 -21 6 -40 7 -20 1
-33 0 -30 -3z"/>
<path d="M2580 759 c0 -5 5 -7 10 -4 6 3 10 8 10 11 0 2 -4 4 -10 4 -5 0 -10
-5 -10 -11z"/>
<path d="M356 402 c-3 -5 1 -9 9 -9 8 0 12 4 9 9 -3 4 -7 8 -9 8 -2 0 -6 -4
-9 -8z"/>
<path d="M2033 375 c0 -8 4 -12 9 -9 5 3 6 10 3 15 -9 13 -12 11 -12 -6z"/>
<path d="M515 369 c-4 -6 -4 -13 -1 -16 3 -4 6 -1 6 6 0 7 5 9 12 5 7 -4 8 -3
4 4 -9 15 -13 15 -21 1z"/>
<path d="M1160 360 c-6 -11 -8 -20 -6 -20 3 0 10 9 16 20 6 11 8 20 6 20 -3 0
-10 -9 -16 -20z"/>
<path d="M1375 369 c-4 -5 -4 -13 -1 -16 3 -4 6 0 6 8 0 11 2 11 10 -1 6 -9
10 -10 10 -3 0 17 -17 25 -25 12z"/>
</g>
</svg>
